<?xml version="1.0" encoding="iso-8859-1"?>
<!-- Generator: Adobe Illustrator 16.0.0, SVG Export Plug-In . SVG Version: 6.00 Build 0)  -->
<!DOCTYPE svg PUBLIC "-//W3C//DTD SVG 1.1//EN" "http://www.w3.org/Graphics/SVG/1.1/DTD/svg11.dtd">
<svg version="1.1" id="Capa_1" xmlns="http://www.w3.org/2000/svg" xmlns:xlink="http://www.w3.org/1999/xlink" x="0px" y="0px"
	 width="40.667px" height="40.666px" viewBox="0 0 40.667 40.666" style="enable-background:new 0 0 40.667 40.666;"
	 xml:space="preserve">
<g>
	<path d="M40.628,11.479c-0.187-0.808-0.988-1.31-1.798-1.126l-7.259,1.667c-0.487,0.111-0.888,0.46-1.065,0.928l-1.537,4.034
		h-3.676l1.896-4.778l-0.546-0.218l-1.26-2.501l0.237-0.597L10.817,3.011l-5.544,13.97H1.5c-0.496,0-0.96,0.245-1.239,0.654
		c-0.279,0.41-0.338,0.931-0.157,1.393L4.577,30.44c-0.711,0.768-1.155,1.785-1.155,2.912c0,2.371,1.93,4.303,4.302,4.303
		c1.873,0,3.454-1.213,4.042-2.887h7.962c0.589,1.674,2.17,2.887,4.043,2.887c2.372,0,4.301-1.932,4.301-4.303
		c0-1.072-0.408-2.045-1.062-2.799l6.016-15.791l6.479-1.487C40.311,13.09,40.814,12.286,40.628,11.479z M24.551,11.584l0.147-0.371
		l0.488-1.231l0.896,1.781l0.271,0.537l0.005,0.011l-1.854,4.67h-2.097L24.551,11.584z M7.722,35.653
		c-1.269,0-2.302-1.033-2.302-2.303c0-1.271,1.033-2.302,2.302-2.302c1.27,0,2.301,1.031,2.301,2.302
		C10.023,34.62,8.992,35.653,7.722,35.653z M23.771,35.653c-1.27,0-2.303-1.033-2.303-2.303c0-1.271,1.033-2.302,2.303-2.302
		s2.301,1.031,2.301,2.302C26.071,34.62,25.04,35.653,23.771,35.653z"/>
</g>
<g>
</g>
<g>
</g>
<g>
</g>
<g>
</g>
<g>
</g>
<g>
</g>
<g>
</g>
<g>
</g>
<g>
</g>
<g>
</g>
<g>
</g>
<g>
</g>
<g>
</g>
<g>
</g>
<g>
</g>
</svg>
